<?xml version="1.0" encoding="UTF-8" standalone="no"?>
<svg
   viewBox="0 0 2606 2706"
   height="2706"
   width="2606"
   xml:space="preserve"
   id="svg2"
   version="1.1"
   sodipodi:docname="cat_fpc_2022.svg"
   inkscape:version="1.1.2 (0a00cf5339, 2022-02-04)"
   xmlns:inkscape="http://www.inkscape.org/namespaces/inkscape"
   xmlns:sodipodi="http://sodipodi.sourceforge.net/DTD/sodipodi-0.dtd"
   xmlns="http://www.w3.org/2000/svg"
   xmlns:svg="http://www.w3.org/2000/svg"
   xmlns:rdf="http://www.w3.org/1999/02/22-rdf-syntax-ns#"
   xmlns:cc="http://creativecommons.org/ns#"
   xmlns:dc="http://purl.org/dc/elements/1.1/"><sodipodi:namedview
     id="namedview66"
     pagecolor="#ffffff"
     bordercolor="#666666"
     borderopacity="1.0"
     inkscape:pageshadow="2"
     inkscape:pageopacity="0.0"
     inkscape:pagecheckerboard="0"
     showgrid="false"
     inkscape:zoom="0.25203252"
     inkscape:cx="1301.4194"
     inkscape:cy="1353"
     inkscape:window-width="1920"
     inkscape:window-height="1031"
     inkscape:window-x="0"
     inkscape:window-y="25"
     inkscape:window-maximized="1"
     inkscape:current-layer="g16" /><metadata
     id="metadata8"><rdf:RDF><cc:Work
         rdf:about=""><dc:format>image/svg+xml</dc:format><dc:type
           rdf:resource="http://purl.org/dc/dcmitype/StillImage" /><dc:title /></cc:Work></rdf:RDF></metadata><defs
     id="defs6"><clipPath
       id="clipPath22"
       clipPathUnits="userSpaceOnUse"><path
         id="path20"
         d="M 0,451.957 H 649.581 V 0 H 0 Z" /></clipPath></defs><g
     id="g10"><g
       id="g70"><g
         id="g8"><path
           id="path6"
           d="M 3,3 H 2603 V 2182.7 L 1303,2702.75 3,2182.7 V 3 h 10"
           style="fill:#e43970;stroke:#d16da4;stroke-width:6" /></g><g
         id="g12"><path
           id="path10"
           d="m 103,103 h 2400 v 2009.7 l -1200,480 -1200,-480 V 103 h 10"
           style="fill:none;stroke:#06104e;stroke-width:6" /></g><g
         id="g16"><text
   id="text14"
   style="font-weight:bold;font-size:400px;font-family:'Noto Sans',sans-serif;text-align:center;text-anchor:middle;fill:#000066"
   y="2000"
   x="1303">FPC 2025</text>
</g><g
         clip-path="url(#clipPath22)"
         id="g18"
         transform="matrix(3.1011252,0,0,-3.1011253,292.78198,1634.2772)"><g
           transform="translate(394.541,34.7295)"
           id="g19"><path
             id="path14"
             style="fill:#0bbfad;fill-opacity:1;fill-rule:nonzero;stroke:none"
             d="M 0,0 209.5,81.802 V 109.5 L -31.161,54.75 Z" /></g><g
           transform="translate(604.04,154.2295)"
           id="g24"><path
             id="path26"
             style="fill:#030140;fill-opacity:1;fill-rule:nonzero;stroke:none"
             d="m 0,0 c -0.739,0 -1.482,-0.082 -2.218,-0.249 l -240.661,-54.75 c -3.086,-0.702 -5.657,-2.824 -6.933,-5.721 -1.276,-2.896 -1.105,-6.226 0.46,-8.976 l 31.162,-54.75 c 1.824,-3.205 5.189,-5.055 8.694,-5.055 1.214,0 2.444,0.221 3.634,0.686 l 209.5,81.802 c 3.837,1.499 6.363,5.196 6.363,9.315 V -10 c 0,3.042 -1.385,5.918 -3.763,7.816 C 4.45,-0.756 2.245,0 0,0 M 0.001,-10 V -37.698 L -209.499,-119.5 -240.66,-64.75 0.001,-10" /></g><g
           transform="translate(600.7627,138.5376)"
           id="g28"><path
             id="path30"
             style="fill:#0bbfad;fill-opacity:1;fill-rule:nonzero;stroke:none"
             d="m 0,0 -239.722,-89.308 v 157 L -0.564,9.544 C 4.225,8.379 4.618,1.721 0,0" /></g><g
           transform="translate(361.041,216.2295)"
           id="g32"><path
             id="path34"
             style="fill:#030140;fill-opacity:1;fill-rule:nonzero;stroke:none"
             d="M 0,0 C -2.219,0 -4.4,-0.739 -6.18,-2.138 -8.592,-4.034 -10,-6.932 -10,-10 v -157 c 0,-3.276 1.604,-6.344 4.295,-8.213 1.698,-1.18 3.693,-1.787 5.705,-1.787 1.177,0 2.358,0.208 3.49,0.629 l 239.723,89.308 c 6.215,2.316 10.128,8.32 9.736,14.942 -0.39,6.621 -4.984,12.123 -11.429,13.69 L 2.362,-0.283 C 1.581,-0.093 0.788,0 0,0 m 0,-10 239.157,-58.148 c 4.789,-1.165 5.183,-7.823 0.565,-9.544 L 0,-167 v 157" /></g><g
           transform="translate(480.1982,139.6562)"
           id="g36"><path
             id="path38"
             style="fill:#0bbfad;fill-opacity:1;fill-rule:nonzero;stroke:none"
             d="m 0,0 -162.1,39.413 c 5.517,-26.702 9.233,-53.105 14.943,-80.84 1.437,-7.669 1.498,-15.108 1.941,-22.427 L 0.564,-9.544 C 5.183,-7.823 4.789,-1.165 0,0" /></g><g
           transform="translate(318.0986,186.0688)"
           id="g40"><path
             id="path42"
             style="fill:#030140;fill-opacity:1;fill-rule:nonzero;stroke:none"
             d="m 0,0 c -1.794,0 -3.543,-0.69 -4.863,-1.965 -1.726,-1.667 -2.478,-4.102 -1.992,-6.452 2.725,-13.192 4.962,-26.051 7.331,-39.665 2.318,-13.325 4.715,-27.104 7.597,-41.106 1.023,-5.481 1.284,-10.854 1.562,-16.541 0.081,-1.661 0.162,-3.313 0.261,-4.96 0.134,-2.215 1.31,-4.235 3.169,-5.445 1.152,-0.749 2.481,-1.133 3.819,-1.133 0.824,0 1.651,0.145 2.443,0.441 l 145.78,54.31 c 4.973,1.852 8.103,6.656 7.79,11.953 -0.313,5.297 -3.988,9.699 -9.144,10.952 L 1.653,-0.198 C 1.105,-0.065 0.551,0 0,0 M -0.001,-7 162.1,-46.413 c 4.789,-1.164 5.182,-7.823 0.564,-9.544 l -145.78,-54.31 c -0.444,7.32 -0.504,14.759 -1.942,22.428 C 9.232,-60.105 5.517,-33.701 -0.001,-7" /></g><g
           transform="translate(363.291,104.9595)"
           id="g44"><path
             id="path46"
             style="fill:#030140;fill-opacity:1;fill-rule:nonzero;stroke:none"
             d="m 0,0 -2.5,6.539 102,39 L 102,39 Z" /></g><g
           transform="translate(330.291,112.9595)"
           id="g48"><path
             id="path50"
             style="fill:#030140;fill-opacity:1;fill-rule:nonzero;stroke:none"
             d="m 0,0 -2.5,6.539 102,39 L 102,39 Z" /></g><g
           transform="translate(290.291,121.9595)"
           id="g52"><path
             id="path54"
             style="fill:#000000;fill-opacity:1;fill-rule:nonzero;stroke:none"
             d="m 0,0 -2.5,6.539 102,39 L 102,39 Z" /></g><g
           transform="translate(471.2715,119.8149)"
           id="g56"><path
             id="path58"
             style="fill:#030140;fill-opacity:1;fill-rule:nonzero;stroke:none"
             d="m 0,0 -102,23 1.539,6.828 102,-23 z" /></g><g
           transform="translate(440.2715,107.8149)"
           id="g60"><path
             id="path62"
             style="fill:#030140;fill-opacity:1;fill-rule:nonzero;stroke:none"
             d="m 0,0 -102,23 1.539,6.828 102,-23 z" /></g><g
           transform="translate(408.2715,96.8149)"
           id="g64"><path
             id="path66"
             style="fill:#030140;fill-opacity:1;fill-rule:nonzero;stroke:none"
             d="m 0,0 -102,23 1.539,6.828 102,-23 z" /></g><g
           transform="translate(437.4492,250.752)"
           id="g68"><path
             id="path70"
             style="fill:#f2edd5;fill-opacity:1;fill-rule:nonzero;stroke:none"
             d="m 0,0 c -0.019,8.086 -2.033,11.337 -7.039,11.36 -7.024,0.032 -13.205,-6.756 -13.018,-14.299 0.121,-4.912 3.49,-7.18 10.728,-7.225 C -1.835,-10.209 0.019,-8.19 0,0 m -161.056,44.065 c -0.073,-7.984 2.262,-10.485 9.952,-10.656 7.967,-0.179 12.035,3.921 12.005,12.098 -0.023,6.57 -4.303,11.06 -10.563,11.083 -6.581,0.024 -11.327,-5.193 -11.394,-12.525 m 63.74,-22.455 c 5.918,-9.798 12.383,-10.572 25.642,-8.747 1.588,0.219 2.849,2.817 4.262,4.312 -1.721,1.377 -3.254,3.274 -5.215,3.979 -1.781,0.639 -4.033,0.043 -6.068,-0.115 -6.135,-0.479 -10.116,1.456 -11.335,8.233 -1.067,5.927 -3.764,6.289 -9.224,3.739 -3.678,-1.717 -8.179,-2.425 -12.241,-2.216 -1.802,0.093 -3.189,3.89 -5.214,5.403 -1.589,1.187 -4.054,2.243 -5.781,1.845 -1.205,-0.276 -2.51,-3.085 -2.575,-4.809 -0.215,-5.656 5.368,-10.974 12.226,-11.546 4.834,-0.403 9.73,-0.078 15.523,-0.078 m 234.409,64.364 c 0.771,-15.712 1.232,-29.827 -3.879,-43.757 -3.432,-9.352 -4.61,-19.569 -8.362,-28.759 -4.843,-11.863 0.234,-19.763 5.875,-29.961 10.528,-19.037 17.787,-39.9 26.084,-60.136 1.233,-3.008 0.708,-6.737 1.096,-11.302 -12.542,2.638 -24.09,5.015 -35.609,7.524 -3.395,0.739 -6.716,1.823 -10.052,2.813 -1.164,0.345 -2.979,0.594 -3.295,1.374 -4.089,10.108 -12.826,6.898 -19.369,5.574 -11.77,-2.381 -23.2,-6.552 -34.673,-10.282 -17.503,-5.69 -35.222,-9.328 -53.702,-6.408 -16.848,2.662 -18.583,17.831 -11.273,29.72 3.478,5.657 8.367,10.432 12.336,15.814 0.861,1.168 1.255,3.838 0.532,4.714 -0.832,1.009 -3.714,1.632 -4.71,0.956 -3.177,-2.158 -6.469,-4.59 -8.633,-7.677 -2.496,-3.559 -4.878,-3.765 -8.755,-2.833 -39.047,9.396 -78.125,18.666 -117.239,27.781 -13.966,3.255 -28.378,4.974 -41.969,9.326 -8.885,2.845 -15.95,0.782 -23.88,-1.864 -9.888,-3.299 -20.608,-4.504 -30.024,-8.723 -11.671,-5.228 -23.486,-4.623 -35.52,-4.733 -6.845,-0.063 -13.085,1.691 -18.104,6.242 -1.852,1.679 -3.047,4.708 -3.42,7.285 -1.862,12.866 4.537,23.039 12.266,32.061 11.799,13.774 23.583,27.757 36.892,39.999 26.847,24.693 54.322,48.884 87.663,64.802 10.123,4.833 21.035,7.997 31.502,12.137 2.284,0.903 4.555,2.383 6.245,4.156 8.447,8.858 16.7,17.902 25.951,27.885 7.663,-10.426 15.238,-19.789 21.662,-29.885 3,-4.715 6.286,-7.584 11.449,-9.239 12.07,-3.87 24.051,-8.027 36.006,-12.249 5.211,-1.841 10.136,-4.555 15.412,-6.135 26.277,-7.873 50.956,-19.102 74.178,-33.741 6.338,-3.995 13.457,-6.911 20.514,-9.516 2.457,-0.908 6.036,0.055 8.717,1.127 12.341,4.936 24.545,10.213 38.088,15.91" /></g><g
           transform="translate(340.1328,272.3618)"
           id="g72"><path
             id="path74"
             style="fill:#030140;fill-opacity:1;fill-rule:nonzero;stroke:none"
             d="m 0,0 c -5.793,0 -10.688,-0.325 -15.522,0.078 -6.859,0.572 -12.442,5.89 -12.227,11.547 0.065,1.723 1.37,4.532 2.575,4.809 1.728,0.397 4.193,-0.659 5.781,-1.846 2.026,-1.513 3.413,-5.31 5.214,-5.403 4.063,-0.209 8.564,0.499 12.242,2.216 5.459,2.55 8.157,2.188 9.223,-3.738 1.22,-6.778 5.2,-8.713 11.335,-8.234 2.035,0.158 4.287,0.755 6.068,0.115 1.961,-0.705 3.495,-2.602 5.215,-3.979 C 28.491,-5.93 27.23,-8.528 25.643,-8.747 12.384,-10.572 5.918,-9.798 0,0" /></g><g
           transform="translate(276.3936,294.8174)"
           id="g76"><path
             id="path78"
             style="fill:#030140;fill-opacity:1;fill-rule:nonzero;stroke:none"
             d="M 0,0 C 0.066,7.332 4.812,12.548 11.394,12.524 17.653,12.502 21.934,8.011 21.957,1.441 21.986,-6.736 17.919,-10.835 9.952,-10.657 2.262,-10.485 -0.073,-7.984 0,0" /></g><g
           transform="translate(437.4492,250.752)"
           id="g80"><path
             id="path82"
             style="fill:#030140;fill-opacity:1;fill-rule:nonzero;stroke:none"
             d="m 0,0 c 0.019,-8.19 -1.835,-10.209 -9.329,-10.164 -7.238,0.045 -10.607,2.313 -10.728,7.225 -0.187,7.543 5.994,14.331 13.018,14.299 C -2.033,11.337 -0.019,8.086 0,0" /></g><g
           transform="translate(492.3584,169.8145)"
           id="g84"><path
             id="path86"
             style="fill:#030140;fill-opacity:1;fill-rule:nonzero;stroke:none"
             d="m 0,0 c -17.503,-5.691 -35.223,-9.329 -53.702,-6.409 -16.848,2.662 -18.583,17.831 -11.274,29.72 3.479,5.657 8.368,10.433 12.336,15.815 0.862,1.168 1.256,3.837 0.533,4.714 -0.832,1.008 -3.714,1.632 -4.71,0.955 -3.177,-2.157 -6.469,-4.59 -8.633,-7.677 -2.496,-3.558 -4.878,-3.765 -8.755,-2.832 -39.047,9.395 -78.125,18.665 -117.239,27.78 -13.966,3.255 -28.378,4.975 -41.969,9.327 -8.885,2.844 -15.95,0.782 -23.88,-1.864 -9.889,-3.299 -20.607,-4.505 -30.024,-8.723 -11.671,-5.229 -23.486,-4.623 -35.52,-4.734 -6.846,-0.062 -13.085,1.691 -18.104,6.242 -1.852,1.68 -3.047,4.709 -3.42,7.285 -1.863,12.867 4.537,23.04 12.266,32.062 11.799,13.774 23.583,27.757 36.892,39.998 26.847,24.693 54.322,48.885 87.663,64.802 10.123,4.833 21.035,7.997 31.502,12.137 2.284,0.903 4.555,2.383 6.245,4.156 8.447,8.858 16.7,17.902 25.951,27.885 7.663,-10.425 15.238,-19.788 21.661,-29.884 3,-4.715 6.286,-7.585 11.45,-9.24 12.07,-3.869 24.051,-8.027 36.005,-12.249 5.211,-1.84 10.137,-4.554 15.413,-6.135 26.277,-7.873 50.956,-19.101 74.178,-33.741 6.338,-3.995 13.457,-6.911 20.514,-9.516 2.457,-0.907 6.036,0.055 8.717,1.128 12.341,4.936 24.545,10.212 38.088,15.91 0.771,-15.712 1.232,-29.828 -3.879,-43.757 -3.432,-9.353 -4.61,-19.57 -8.362,-28.76 C 65.1,82.533 70.177,74.632 75.817,64.434 86.346,45.397 93.604,24.534 101.901,4.298 103.135,1.291 102.609,-2.439 102.998,-7.004 90.456,-4.365 78.908,-1.988 67.389,0.521 63.994,1.26 60.673,2.344 57.337,3.333 56.173,3.678 54.357,3.928 54.042,4.708 49.953,14.816 41.216,11.606 34.673,10.282 22.902,7.9 11.473,3.73 0,0 m 114.683,-20.585 -0.245,1.446 c 0.029,-0.007 -3.761,27.187 -8.159,39.15 -6.514,17.722 -14.703,34.95 -23.665,51.588 -3.373,6.264 -6.665,10.967 -4.168,18.413 3.467,10.335 5.271,21.243 8.953,31.486 5.752,15.997 3.572,32.373 3.467,48.621 -0.042,6.628 -3.771,8.518 -9.422,6.216 -12.648,-5.152 -25.223,-10.486 -37.868,-15.649 -1.788,-0.73 -4.097,-1.759 -5.653,-1.207 -6.515,2.31 -13.34,4.357 -19.136,7.973 -22.117,13.797 -45.344,24.827 -70.315,32.56 -19.413,6.012 -38.387,13.458 -57.464,20.512 -1.996,0.738 -3.563,2.992 -5.012,4.796 -8.284,10.314 -16.331,20.822 -24.764,31.012 -3.243,3.919 -7.651,4.16 -11.26,0.39 -8.336,-8.706 -16.285,-17.784 -24.654,-26.458 -2.232,-2.314 -5.176,-4.527 -8.194,-5.402 -21.603,-6.262 -41.165,-16.529 -59.684,-29.106 -13.345,-9.064 -25.572,-19.323 -37.122,-30.619 -8.114,-7.936 -18.467,-13.63 -26.332,-21.766 -13.392,-13.856 -25.961,-28.56 -38.209,-43.456 -8.9,-10.826 -9.756,-23.906 -6.814,-37.142 0.576,-2.593 3.045,-5.16 5.282,-6.925 13.669,-10.78 29.829,-9.419 45.151,-6.84 14.306,2.408 28.052,8.091 42.091,12.176 3.339,0.971 6.764,2.218 10.162,2.841 L -76.088,23.877 c -0.054,-7.038 -0.321,-13.476 0.183,-19.847 0.256,-3.237 1.527,-7.184 3.761,-9.319 5.641,-5.39 12.484,-8.972 20.597,-9.544 20.89,-1.476 40.827,2.099 60.302,9.853 5.514,2.194 11.554,4.255 17.472,5.011 z" /></g><g
           transform="translate(45.541,134.7295)"
           id="g88"><path
             id="path90"
             style="fill:#0bbfad;fill-opacity:1;fill-rule:nonzero;stroke:none"
             d="m 0,0 349,-100 v 28.598 260.844 c 0,2.365 -1.657,4.407 -3.972,4.893 l -339,71.284 C 2.921,266.272 0,263.901 0,260.726 Z" /></g><g
           transform="translate(50.5303,410.457)"
           id="g92"><path
             id="path94"
             style="fill:#030140;fill-opacity:1;fill-rule:nonzero;stroke:none"
             d="m 0,0 c -8.266,0 -14.989,-6.73 -14.989,-15.002 v -260.726 c 0,-4.461 2.956,-8.384 7.245,-9.613 l 349,-100 c 0.906,-0.259 1.833,-0.387 2.754,-0.387 2.147,0 4.264,0.692 6.019,2.015 2.507,1.889 3.982,4.846 3.982,7.985 v 28.599 260.843 c 0,7.055 -5.011,13.228 -11.914,14.68 l -339,71.283 C 2.079,-0.109 1.036,0 0,0 m 0,-10 c 0.341,0 0.689,-0.035 1.039,-0.109 l 339,-71.284 c 2.315,-0.486 3.972,-2.527 3.972,-4.893 v -260.843 -28.599 l -349,100 v 260.726 c 0,2.817 2.3,5.002 4.989,5.002" /></g><g
           transform="translate(394.5439,53.728)"
           id="g96"><path
             id="path98"
             style="fill:#030140;fill-opacity:1;fill-rule:nonzero;stroke:none"
             d="m 0,0 c -0.446,0 -0.899,0.06 -1.35,0.186 l -348.5,97.5 c -2.66,0.744 -4.212,3.502 -3.468,6.162 0.744,2.66 3.506,4.213 6.162,3.468 L 1.344,9.816 C 4.004,9.072 5.557,6.313 4.812,3.654 4.194,1.445 2.187,0 0,0" /></g><g
           transform="translate(163.4053,197.2427)"
           id="g100"><path
             id="path102"
             style="fill:#030140;fill-opacity:1;fill-rule:nonzero;stroke:none"
             d="m 0,0 c -0.047,3.504 0.787,6.842 2.734,9.529 0.595,0.821 1.454,1.391 2.187,2.085 2.353,2.23 4.808,4.36 7.045,6.737 2.851,3.029 5.631,6.161 8.261,9.445 3.088,3.856 5.859,8.032 8.373,12.431 0.776,1.358 2.014,2.011 3.356,2.481 1.335,0.466 2.791,0.779 4.279,0.837 3.599,0.14 7.107,-1.217 10.505,-3.797 2.944,-2.236 4.98,-5.213 6.874,-8.346 1.771,-2.928 3.586,-5.84 5.328,-8.793 1.626,-2.758 3.207,-5.543 4.758,-8.344 1.644,-2.968 3.264,-5.952 4.826,-8.961 1.892,-3.642 3.727,-7.312 5.561,-10.987 0.963,-1.928 1.99,-3.854 2.764,-5.824 0.97,-2.474 1.551,-4.98 1.781,-7.481 0.183,-1.998 0.199,-3.929 -0.03,-5.806 -0.33,-2.697 -1.16,-5.082 -2.413,-7.216 -1.545,-2.63 -3.676,-4.607 -6.354,-5.89 -2.809,-1.346 -5.961,-1.788 -9.474,-1.123 -3.412,0.646 -6.604,2.284 -9.714,4.573 -3.043,2.241 -6.224,4.133 -9.471,5.656 -2.447,1.147 -4.938,2.135 -7.41,2.925 -2.094,0.669 -4.198,0.984 -6.289,1.408 -3.253,0.657 -6.354,0.456 -9.54,0.829 -1.655,0.194 -3.351,0.851 -5.04,1.714 -2.302,1.175 -4.304,2.8 -6.157,4.766 -2.479,2.631 -4.186,5.674 -5.349,8.959 C 0.453,-5.543 0.017,-2.911 0,0" /></g><g
           transform="translate(264.7461,221.7236)"
           id="g104"><path
             id="path106"
             style="fill:#030140;fill-opacity:1;fill-rule:nonzero;stroke:none"
             d="m 0,0 c -0.039,-5.51 -0.629,-9.92 -2.106,-13.953 -1.281,-3.493 -2.946,-6.673 -5.423,-9.211 -1.789,-1.832 -3.845,-3.286 -6.413,-3.937 -3.146,-0.798 -6.427,-0.401 -9.727,2.11 -2.35,1.788 -4.118,4.123 -5.436,6.755 -1.489,2.97 -2.394,6.006 -2.862,9.076 -0.398,2.62 -0.563,5.18 -0.503,7.724 0.089,3.774 0.736,7.275 1.828,10.6 1.051,3.196 2.557,6.064 4.57,8.537 1.957,2.403 4.329,4.32 7.424,5.183 3.073,0.858 6.299,0.605 9.611,-1.813 2.794,-2.039 4.683,-4.771 6.118,-7.862 C -1.574,10.314 -0.856,7.375 -0.39,4.437 -0.106,2.656 -0.074,0.896 0,0" /></g><g
           transform="translate(178.4658,240.5952)"
           id="g108"><path
             id="path110"
             style="fill:#030140;fill-opacity:1;fill-rule:nonzero;stroke:none"
             d="m 0,0 c -0.027,-2.78 -0.282,-5.469 -1.02,-7.947 -0.941,-3.163 -2.437,-5.893 -4.963,-7.647 -2.521,-1.748 -5.539,-2.132 -8.943,-0.772 -2.83,1.131 -5.299,3.107 -7.501,5.65 -2.175,2.511 -3.923,5.226 -5.298,8.186 -1.557,3.352 -2.745,6.761 -3.325,10.234 -0.32,1.917 -0.65,3.857 -0.709,5.727 -0.063,1.974 0.152,3.892 0.317,5.809 0.184,2.153 0.817,4.081 1.623,5.903 1.061,2.398 2.627,4.305 4.79,5.54 1.846,1.054 3.983,1.327 6.358,0.761 4.329,-1.031 7.673,-4.01 10.657,-7.877 2.775,-3.594 4.623,-7.557 5.988,-11.661 C -0.959,8.697 -0.257,5.432 -0.159,2.219 -0.138,1.487 -0.055,0.74 0,0" /></g><g
           transform="translate(226.1504,282.187)"
           id="g112"><path
             id="path114"
             style="fill:#030140;fill-opacity:1;fill-rule:nonzero;stroke:none"
             d="m 0,0 c 3.982,-1.047 7.013,-3.677 9.372,-7.478 2.286,-3.683 3.332,-7.519 3.779,-11.451 0.533,-4.68 0.028,-9.005 -1.178,-13.084 -1.092,-3.69 -2.827,-6.906 -5.275,-9.538 -1.803,-1.94 -3.948,-3.453 -6.59,-4.179 -1.895,-0.521 -3.914,-0.668 -6.07,-0.094 -2.594,0.692 -4.894,2.18 -6.92,4.37 -2.412,2.609 -3.939,5.582 -4.968,8.818 -0.957,3.009 -1.352,5.948 -1.462,8.893 -0.131,3.558 0.411,6.854 1.359,9.967 0.965,3.169 2.45,5.983 4.457,8.415 1.995,2.418 4.406,4.242 7.457,5.195 C -4.169,0.418 -2.165,0.527 0,0" /></g><g
           transform="translate(204.5283,262.395)"
           id="g116"><path
             id="path118"
             style="fill:#030140;fill-opacity:1;fill-rule:nonzero;stroke:none"
             d="m 0,0 c -0.295,-2.059 -0.434,-4.198 -0.932,-6.153 -0.454,-1.781 -1.217,-3.421 -1.996,-5.012 -0.71,-1.452 -1.797,-2.568 -3.086,-3.454 -2.046,-1.405 -4.397,-1.943 -7.17,-1.342 -3.365,0.728 -6.229,2.793 -8.834,5.527 -2.734,2.871 -4.749,6.185 -6.297,9.732 -1.438,3.293 -2.453,6.657 -2.983,10.042 -0.329,2.101 -0.458,4.168 -0.435,6.232 0.019,1.918 0.19,3.761 0.551,5.532 0.701,3.433 2.035,6.425 4.501,8.541 2.155,1.849 4.804,2.585 7.939,1.984 2.693,-0.516 5.177,-1.962 7.438,-4.053 3.378,-3.123 5.798,-6.878 7.62,-11.05 1.965,-4.5 3.043,-9.039 3.451,-13.609 C -0.147,1.959 -0.221,1.026 -0.221,0.081 -0.147,0.054 -0.073,0.027 0,0" /></g></g></g></g></svg>
