<?xml version="1.0" encoding="UTF-8"?>
<svg id="svg2" xmlns="http://www.w3.org/2000/svg" version="1.1" xmlns:cc="http://creativecommons.org/ns#" xmlns:dc="http://purl.org/dc/elements/1.1/" xmlns:inkscape="http://www.inkscape.org/namespaces/inkscape" xmlns:rdf="http://www.w3.org/1999/02/22-rdf-syntax-ns#" xmlns:sodipodi="http://sodipodi.sourceforge.net/DTD/sodipodi-0.dtd" xmlns:svg="http://www.w3.org/2000/svg" xmlns:xlink="http://www.w3.org/1999/xlink" viewBox="0 0 2606 2706">
  <!-- Generator: Adobe Illustrator 29.3.1, SVG Export Plug-In . SVG Version: 2.1.0 Build 151)  -->
  <defs>
    <style>
      .st0 {
        fill: #e43970;
        stroke: #d16da4;
      }

      .st0, .st1 {
        stroke-width: 6px;
      }

      .st2 {
        fill: #006;
        font-family: Arial-BoldMT, Arial;
        font-size: 400px;
        font-weight: 700;
        isolation: isolate;
      }

      .st3, .st1 {
        fill: none;
      }

      .st4 {
        fill: #0bbfad;
      }

      .st5 {
        fill: #f2edd5;
      }

      .st1 {
        stroke: #06104e;
      }

      .st6 {
        clip-path: url(#clippath);
      }

      .st7 {
        fill: #030140;
      }
    </style>
    <clipPath id="clippath">
      <rect class="st3" x="292.8" y="232.7" width="2014.4" height="1401.6"/>
    </clipPath>
  </defs>
  <sodipodi:namedview id="namedview66" bordercolor="#666666" borderopacity="1.0" inkscape:current-layer="g16" inkscape:cx="1301.4194" inkscape:cy="1353" inkscape:pagecheckerboard="0" inkscape:pageopacity="0.0" inkscape:pageshadow="2" inkscape:window-height="1031" inkscape:window-maximized="1" inkscape:window-width="1920" inkscape:window-x="0" inkscape:window-y="25" inkscape:zoom="0.25203252" pagecolor="#ffffff" showgrid="false"/>
  <g id="g10">
    <g id="g70">
      <g id="g8">
        <path id="path6" class="st0" d="M3,3h2600v2179.7l-1300,520.1L3,2182.7V3h10"/>
      </g>
      <g id="g12">
        <path id="path10" class="st1" d="M103,103h2400v2009.7l-1200,480L103,2112.7V103h10"/>
      </g>
      <g id="g16">
        <text id="text14" class="st2" transform="translate(402.5 2000)"><tspan x="0" y="0">FPC 2025</tspan></text>
      </g>
      <g class="st6">
        <g id="g18">
          <g id="g19">
            <path id="path14" class="st4" d="M1516.3,1526.6l649.7-253.7v-85.9l-746.3,169.8,96.6,169.8Z"/>
          </g>
          <g id="g24">
            <path id="path26" class="st7" d="M2166,1156c-2.3,0-4.6.3-6.9.8l-746.3,169.8c-9.6,2.2-17.5,8.8-21.5,17.7-4,9-3.4,19.3,1.4,27.8l96.6,169.8c5.7,9.9,16.1,15.7,27,15.7s7.6-.7,11.3-2.1l649.7-253.7c11.9-4.6,19.7-16.1,19.7-28.9v-85.9c0-9.4-4.3-18.4-11.7-24.2-5.5-4.4-12.4-6.8-19.3-6.8M2166,1187v85.9l-649.7,253.7-96.6-169.8,746.3-169.8"/>
          </g>
          <g id="g28">
            <path id="path30" class="st4" d="M2155.8,1204.7l-743.4,277v-486.9l741.7,180.3c14.9,3.6,16.1,24.3,1.7,29.6"/>
          </g>
          <g id="g32">
            <path id="path34" class="st7" d="M1412.4,963.7c-6.9,0-13.6,2.3-19.2,6.6-7.5,5.9-11.8,14.9-11.8,24.4v486.9c0,10.2,5,19.7,13.3,25.5,5.3,3.7,11.5,5.5,17.7,5.5s7.3-.6,10.8-2l743.4-277c19.3-7.2,31.4-25.8,30.2-46.3-1.2-20.5-15.5-37.6-35.4-42.5l-741.7-180.3c-2.4-.6-4.9-.9-7.3-.9M1412.4,994.7l741.7,180.3c14.9,3.6,16.1,24.3,1.8,29.6l-743.4,277v-486.9"/>
          </g>
          <g id="g36">
            <path id="path38" class="st4" d="M1781.9,1201.2l-502.7-122.2c17.1,82.8,28.6,164.7,46.3,250.7,4.5,23.8,4.6,46.9,6,69.5l452.1-168.4c14.3-5.3,13.1-26-1.7-29.6"/>
          </g>
          <g id="g40">
            <path id="path42" class="st7" d="M1279.2,1057.3c-5.6,0-11,2.1-15.1,6.1-5.4,5.2-7.7,12.7-6.2,20,8.5,40.9,15.4,80.8,22.7,123,7.2,41.3,14.6,84.1,23.6,127.5,3.2,17,4,33.7,4.8,51.3.3,5.2.5,10.3.8,15.4.4,6.9,4.1,13.1,9.8,16.9,3.6,2.3,7.7,3.5,11.8,3.5s5.1-.4,7.6-1.4l452.1-168.4c15.4-5.7,25.1-20.6,24.2-37.1-1-16.4-12.4-30.1-28.4-34l-502.7-122.2c-1.7-.4-3.4-.6-5.1-.6M1279.2,1079l502.7,122.2c14.9,3.6,16.1,24.3,1.7,29.6l-452.1,168.4c-1.4-22.7-1.6-45.8-6-69.6-17.7-86-29.2-167.9-46.3-250.7"/>
          </g>
          <g id="g44">
            <path id="path46" class="st7" d="M1419.4,1308.8l-7.8-20.3,316.3-120.9,7.8,20.3-316.3,120.9Z"/>
          </g>
          <g id="g48">
            <path id="path50" class="st7" d="M1317.1,1284l-7.8-20.3,316.3-120.9,7.8,20.3-316.3,120.9Z"/>
          </g>
          <g id="g52">
            <path id="path54" d="M1193,1256.1l-7.8-20.3,316.3-120.9,7.8,20.3-316.3,120.9Z"/>
          </g>
          <g id="g56">
            <path id="path58" class="st7" d="M1754.3,1262.7l-316.3-71.3,4.8-21.2,316.3,71.3-4.8,21.2Z"/>
          </g>
          <g id="g60">
            <path id="path62" class="st7" d="M1658.1,1299.9l-316.3-71.3,4.8-21.2,316.3,71.3-4.8,21.2Z"/>
          </g>
          <g id="g64">
            <path id="path66" class="st7" d="M1558.9,1334l-316.3-71.3,4.8-21.2,316.3,71.3-4.8,21.2Z"/>
          </g>
          <g id="g68">
            <path id="path70" class="st5" d="M1649.4,856.7c0-25.1-6.3-35.2-21.8-35.2-21.8,0-41,21-40.4,44.3.4,15.2,10.8,22.3,33.3,22.4,23.2.1,29-6.1,28.9-31.5M1149.9,720c-.2,24.8,7,32.5,30.9,33,24.7.6,37.3-12.2,37.2-37.5,0-20.4-13.3-34.3-32.8-34.4-20.4,0-35.1,16.1-35.3,38.8M1347.6,789.6c18.4,30.4,38.4,32.8,79.5,27.1,4.9-.7,8.8-8.7,13.2-13.4-5.3-4.3-10.1-10.2-16.2-12.3-5.5-2-12.5-.1-18.8.4-19,1.5-31.4-4.5-35.2-25.5-3.3-18.4-11.7-19.5-28.6-11.6-11.4,5.3-25.4,7.5-38,6.9-5.6-.3-9.9-12.1-16.2-16.8-4.9-3.7-12.6-7-17.9-5.7-3.7.9-7.8,9.6-8,14.9-.7,17.5,16.6,34,37.9,35.8,15,1.2,30.2.2,48.1.2M2074.5,590c2.4,48.7,3.8,92.5-12,135.7-10.6,29-14.3,60.7-25.9,89.2-15,36.8.7,61.3,18.2,92.9,32.6,59,55.2,123.7,80.9,186.5,3.8,9.3,2.2,20.9,3.4,35-38.9-8.2-74.7-15.6-110.4-23.3-10.5-2.3-20.8-5.7-31.2-8.7-3.6-1.1-9.2-1.8-10.2-4.3-12.7-31.3-39.8-21.4-60.1-17.3-36.5,7.4-71.9,20.3-107.5,31.9-54.3,17.6-109.2,28.9-166.5,19.9-52.2-8.3-57.6-55.3-35-92.2,10.8-17.5,25.9-32.4,38.3-49,2.7-3.6,3.9-11.9,1.6-14.6-2.6-3.1-11.5-5.1-14.6-3-9.9,6.7-20.1,14.2-26.8,23.8-7.7,11-15.1,11.7-27.2,8.8-121.1-29.1-242.3-57.9-363.6-86.2-43.3-10.1-88-15.4-130.2-28.9-27.6-8.8-49.5-2.4-74.1,5.8-30.7,10.2-63.9,14-93.1,27.1-36.2,16.2-72.8,14.3-110.2,14.7-21.2.2-40.6-5.2-56.1-19.4-5.7-5.2-9.4-14.6-10.6-22.6-5.8-39.9,14.1-71.4,38-99.4,36.6-42.7,73.1-86.1,114.4-124,83.3-76.6,168.5-151.6,271.9-201,31.4-15,65.2-24.8,97.7-37.6,7.1-2.8,14.1-7.4,19.4-12.9,26.2-27.5,51.8-55.5,80.5-86.5,23.8,32.3,47.3,61.4,67.2,92.7,9.3,14.6,19.5,23.5,35.5,28.7,37.4,12,74.6,24.9,111.7,38,16.2,5.7,31.4,14.1,47.8,19,81.5,24.4,158,59.2,230,104.6,19.7,12.4,41.7,21.4,63.6,29.5,7.6,2.8,18.7-.2,27-3.5,38.3-15.3,76.1-31.7,118.1-49.3"/>
          </g>
          <g id="g72">
            <path id="path74" class="st7" d="M1347.6,789.6c-18,0-33.1,1-48.1-.2-21.3-1.8-38.6-18.3-37.9-35.8.2-5.3,4.2-14.1,8-14.9,5.4-1.2,13,2,17.9,5.7,6.3,4.7,10.6,16.5,16.2,16.8,12.6.6,26.6-1.5,38-6.9,16.9-7.9,25.3-6.8,28.6,11.6,3.8,21,16.1,27,35.2,25.5,6.3-.5,13.3-2.3,18.8-.4,6.1,2.2,10.8,8.1,16.2,12.3-4.4,4.6-8.3,12.7-13.2,13.4-41.1,5.7-61.2,3.3-79.5-27.1"/>
          </g>
          <g id="g76">
            <path id="path78" class="st7" d="M1149.9,720c.2-22.7,14.9-38.9,35.3-38.8,19.4,0,32.7,14,32.8,34.4,0,25.4-12.5,38.1-37.2,37.5-23.8-.5-31.1-8.3-30.9-33"/>
          </g>
          <g id="g80">
            <path id="path82" class="st7" d="M1649.4,856.7c0,25.4-5.7,31.7-28.9,31.5-22.4-.1-32.9-7.2-33.3-22.4-.6-23.4,18.6-44.4,40.4-44.3,15.5,0,21.8,10.2,21.8,35.2"/>
          </g>
          <g id="g84">
            <path id="path86" class="st7" d="M1819.6,1107.7c-54.3,17.6-109.2,28.9-166.5,19.9-52.2-8.3-57.6-55.3-35-92.2,10.8-17.5,26-32.4,38.3-49,2.7-3.6,3.9-11.9,1.7-14.6-2.6-3.1-11.5-5.1-14.6-3-9.9,6.7-20.1,14.2-26.8,23.8-7.7,11-15.1,11.7-27.2,8.8-121.1-29.1-242.3-57.9-363.6-86.1-43.3-10.1-88-15.4-130.2-28.9-27.6-8.8-49.5-2.4-74.1,5.8-30.7,10.2-63.9,14-93.1,27.1-36.2,16.2-72.8,14.3-110.2,14.7-21.2.2-40.6-5.2-56.1-19.4-5.7-5.2-9.4-14.6-10.6-22.6-5.8-39.9,14.1-71.4,38-99.4,36.6-42.7,73.1-86.1,114.4-124,83.3-76.6,168.5-151.6,271.9-201,31.4-15,65.2-24.8,97.7-37.6,7.1-2.8,14.1-7.4,19.4-12.9,26.2-27.5,51.8-55.5,80.5-86.5,23.8,32.3,47.3,61.4,67.2,92.7,9.3,14.6,19.5,23.5,35.5,28.7,37.4,12,74.6,24.9,111.7,38,16.2,5.7,31.4,14.1,47.8,19,81.5,24.4,158,59.2,230,104.6,19.7,12.4,41.7,21.4,63.6,29.5,7.6,2.8,18.7-.2,27-3.5,38.3-15.3,76.1-31.7,118.1-49.3,2.4,48.7,3.8,92.5-12,135.7-10.6,29-14.3,60.7-25.9,89.2-15,36.8.7,61.3,18.2,92.9,32.7,59,55.2,123.7,80.9,186.5,3.8,9.3,2.2,20.9,3.4,35-38.9-8.2-74.7-15.6-110.4-23.3-10.5-2.3-20.8-5.7-31.2-8.7-3.6-1.1-9.2-1.8-10.2-4.3-12.7-31.3-39.8-21.4-60.1-17.3-36.5,7.4-71.9,20.3-107.5,31.9M2175.3,1171.5l-.8-4.5c0,0-11.7-84.3-25.3-121.4-20.2-55-45.6-108.4-73.4-160-10.5-19.4-20.7-34-12.9-57.1,10.8-32.1,16.3-65.9,27.8-97.6,17.8-49.6,11.1-100.4,10.8-150.8-.1-20.6-11.7-26.4-29.2-19.3-39.2,16-78.2,32.5-117.4,48.5-5.5,2.3-12.7,5.5-17.5,3.7-20.2-7.2-41.4-13.5-59.3-24.7-68.6-42.8-140.6-77-218.1-101-60.2-18.6-119-41.7-178.2-63.6-6.2-2.3-11-9.3-15.5-14.9-25.7-32-50.6-64.6-76.8-96.2-10.1-12.2-23.7-12.9-34.9-1.2-25.9,27-50.5,55.2-76.5,82-6.9,7.2-16.1,14-25.4,16.8-67,19.4-127.7,51.3-185.1,90.3-41.4,28.1-79.3,59.9-115.1,95-25.2,24.6-57.3,42.3-81.7,67.5-41.5,43-80.5,88.6-118.5,134.8-27.6,33.6-30.3,74.1-21.1,115.2,1.8,8,9.4,16,16.4,21.5,42.4,33.4,92.5,29.2,140,21.2,44.4-7.5,87-25.1,130.5-37.8,10.4-3,21-6.9,31.5-8.8l534.2,124.5c-.2,21.8-1,41.8.6,61.5.8,10,4.7,22.3,11.7,28.9,17.5,16.7,38.7,27.8,63.9,29.6,64.8,4.6,126.6-6.5,187-30.6,17.1-6.8,35.8-13.2,54.2-15.5l274.3,63.9Z"/>
          </g>
          <g id="g88">
            <path id="path90" class="st4" d="M434,1216.5l1082.3,310.1v-897.6c0-7.3-5.1-13.7-12.3-15.2L452.7,392.7c-9.6-2-18.7,5.3-18.7,15.2v808.5Z"/>
          </g>
          <g id="g92">
            <path id="path94" class="st7" d="M449.5,361.4c-25.6,0-46.5,20.9-46.5,46.5v808.5c0,13.8,9.2,26,22.5,29.8l1082.3,310.1c2.8.8,5.7,1.2,8.5,1.2,6.7,0,13.2-2.1,18.7-6.2,7.8-5.9,12.3-15,12.3-24.8v-897.6c0-21.9-15.5-41-36.9-45.5L459.1,362.4c-3.2-.7-6.4-1-9.6-1M449.5,392.4c1.1,0,2.1.1,3.2.3l1051.3,221.1c7.2,1.5,12.3,7.8,12.3,15.2v897.6l-1082.3-310.1V407.9c0-8.7,7.1-15.5,15.5-15.5"/>
          </g>
          <g id="g96">
            <path id="path98" class="st7" d="M1516.3,1467.7c-1.4,0-2.8-.2-4.2-.6l-1080.7-302.4c-8.2-2.3-13.1-10.9-10.8-19.1,2.3-8.2,10.9-13.1,19.1-10.8l1080.7,302.4c8.2,2.3,13.1,10.9,10.8,19.1-1.9,6.9-8.1,11.3-14.9,11.3"/>
          </g>
          <g id="g100">
            <path id="path102" class="st7" d="M799.5,1022.6c-.1-10.9,2.4-21.2,8.5-29.6,1.8-2.5,4.5-4.3,6.8-6.5,7.3-6.9,14.9-13.5,21.8-20.9,8.8-9.4,17.5-19.1,25.6-29.3,9.6-12,18.2-24.9,26-38.6,2.4-4.2,6.2-6.2,10.4-7.7,4.1-1.4,8.7-2.4,13.3-2.6,11.2-.4,22,3.8,32.6,11.8,9.1,6.9,15.4,16.2,21.3,25.9,5.5,9.1,11.1,18.1,16.5,27.3,5,8.6,9.9,17.2,14.8,25.9,5.1,9.2,10.1,18.5,15,27.8,5.9,11.3,11.6,22.7,17.2,34.1,3,6,6.2,12,8.6,18.1,3,7.7,4.8,15.4,5.5,23.2.6,6.2.6,12.2,0,18-1,8.4-3.6,15.8-7.5,22.4-4.8,8.2-11.4,14.3-19.7,18.3-8.7,4.2-18.5,5.5-29.4,3.5-10.6-2-20.5-7.1-30.1-14.2-9.4-6.9-19.3-12.8-29.4-17.5-7.6-3.6-15.3-6.6-23-9.1-6.5-2.1-13-3.1-19.5-4.4-10.1-2-19.7-1.4-29.6-2.6-5.1-.6-10.4-2.6-15.6-5.3-7.1-3.6-13.3-8.7-19.1-14.8-7.7-8.2-13-17.6-16.6-27.8-2.9-8.2-4.3-16.4-4.3-25.4"/>
          </g>
          <g id="g104">
            <path id="path106" class="st7" d="M1113.8,946.7c-.1,17.1-2,30.8-6.5,43.3-4,10.8-9.1,20.7-16.8,28.6-5.5,5.7-11.9,10.2-19.9,12.2-9.8,2.5-19.9,1.2-30.2-6.5-7.3-5.5-12.8-12.8-16.9-20.9-4.6-9.2-7.4-18.6-8.9-28.1-1.2-8.1-1.7-16.1-1.6-24,.3-11.7,2.3-22.6,5.7-32.9,3.3-9.9,7.9-18.8,14.2-26.5,6.1-7.5,13.4-13.4,23-16.1,9.5-2.7,19.5-1.9,29.8,5.6,8.7,6.3,14.5,14.8,19,24.4,4.2,9,6.4,18.1,7.8,27.2.9,5.5,1,11,1.2,13.8"/>
          </g>
          <g id="g108">
            <path id="path110" class="st7" d="M846.2,888.2c0,8.6-.9,17-3.2,24.6-2.9,9.8-7.6,18.3-15.4,23.7-7.8,5.4-17.2,6.6-27.7,2.4-8.8-3.5-16.4-9.6-23.3-17.5-6.7-7.8-12.2-16.2-16.4-25.4-4.8-10.4-8.5-21-10.3-31.7-1-5.9-2-12-2.2-17.8-.2-6.1.5-12.1,1-18,.6-6.7,2.5-12.7,5-18.3,3.3-7.4,8.1-13.4,14.9-17.2,5.7-3.3,12.4-4.1,19.7-2.4,13.4,3.2,23.8,12.4,33,24.4,8.6,11.1,14.3,23.4,18.6,36.2,3.3,10,5.5,20.1,5.8,30,0,2.3.3,4.6.5,6.9"/>
          </g>
          <g id="g112">
            <path id="path114" class="st7" d="M994.1,759.2c12.3,3.2,21.7,11.4,29.1,23.2,7.1,11.4,10.3,23.3,11.7,35.5,1.7,14.5,0,27.9-3.7,40.6-3.4,11.4-8.8,21.4-16.4,29.6-5.6,6-12.2,10.7-20.4,13-5.9,1.6-12.1,2.1-18.8.3-8-2.1-15.2-6.8-21.5-13.6-7.5-8.1-12.2-17.3-15.4-27.3-3-9.3-4.2-18.4-4.5-27.6-.4-11,1.3-21.3,4.2-30.9,3-9.8,7.6-18.6,13.8-26.1,6.2-7.5,13.7-13.2,23.1-16.1,5.8-1.8,12-2.1,18.7-.5"/>
          </g>
          <g id="g116">
            <path id="path118" class="st7" d="M927,820.6c-.9,6.4-1.3,13-2.9,19.1-1.4,5.5-3.8,10.6-6.2,15.5-2.2,4.5-5.6,8-9.6,10.7-6.3,4.4-13.6,6-22.2,4.2-10.4-2.3-19.3-8.7-27.4-17.1-8.5-8.9-14.7-19.2-19.5-30.2-4.5-10.2-7.6-20.6-9.3-31.1-1-6.5-1.4-12.9-1.3-19.3,0-5.9.6-11.7,1.7-17.2,2.2-10.6,6.3-19.9,14-26.5,6.7-5.7,14.9-8,24.6-6.2,8.4,1.6,16.1,6.1,23.1,12.6,10.5,9.7,18,21.3,23.6,34.3,6.1,14,9.4,28,10.7,42.2.3,3,0,5.9,0,8.8.2,0,.5.2.7.3"/>
          </g>
        </g>
      </g>
    </g>
  </g>
</svg>